<svg width="50" height="50" viewBox="0 0 50 50" fill="none" xmlns="http://www.w3.org/2000/svg">
<path fill-rule="evenodd" clip-rule="evenodd" d="M46.8749 25C46.8749 24.5856 46.7102 24.1882 46.4172 23.8952C46.1242 23.6021 45.7268 23.4375 45.3124 23.4375H8.45924L18.2936 13.6063C18.4389 13.461 18.5541 13.2885 18.6327 13.0987C18.7114 12.9089 18.7518 12.7055 18.7518 12.5C18.7518 12.2946 18.7114 12.0911 18.6327 11.9013C18.5541 11.7115 18.4389 11.539 18.2936 11.3938C18.1483 11.2485 17.9759 11.1333 17.7861 11.0546C17.5963 10.976 17.3928 10.9355 17.1874 10.9355C16.9819 10.9355 16.7785 10.976 16.5887 11.0546C16.3989 11.1333 16.2264 11.2485 16.0811 11.3938L3.58111 23.8938C3.4356 24.0389 3.32016 24.2113 3.24139 24.4012C3.16262 24.591 3.12207 24.7945 3.12207 25C3.12207 25.2055 3.16262 25.409 3.24139 25.5989C3.32016 25.7887 3.4356 25.9611 3.58111 26.1063L16.0811 38.6063C16.2264 38.7515 16.3989 38.8668 16.5887 38.9454C16.7785 39.024 16.9819 39.0645 17.1874 39.0645C17.3928 39.0645 17.5963 39.024 17.7861 38.9454C17.9759 38.8668 18.1483 38.7515 18.2936 38.6063C18.4389 38.461 18.5541 38.2885 18.6327 38.0987C18.7114 37.9089 18.7518 37.7055 18.7518 37.5C18.7518 37.2946 18.7114 37.0911 18.6327 36.9013C18.5541 36.7115 18.4389 36.539 18.2936 36.3938L8.45924 26.5625H45.3124C45.7268 26.5625 46.1242 26.3979 46.4172 26.1049C46.7102 25.8118 46.8749 25.4144 46.8749 25Z" fill="black"/>
</svg>
