<svg width="512" height="355" viewBox="0 0 512 355" fill="none" xmlns="http://www.w3.org/2000/svg">
<g clip-path="url(#clip0_383_1947)">
<path d="M484.113 353.602C485.311 340.394 488.622 327.478 493.912 315.368C495.386 311.998 497.009 308.702 498.78 305.48C498.869 305.312 498.89 305.115 498.84 304.93C498.789 304.746 498.671 304.589 498.509 304.492C498.348 304.396 498.156 304.367 497.974 304.412C497.792 304.458 497.635 304.574 497.535 304.735C491.094 316.469 486.581 329.207 484.178 342.438C483.51 346.133 483.007 349.855 482.671 353.602C482.585 354.547 484.028 354.541 484.113 353.602Z" fill="#F2F2F2"/>
<path d="M502.273 307.847C507.317 307.847 511.406 303.663 511.406 298.501C511.406 293.34 507.317 289.156 502.273 289.156C497.229 289.156 493.14 293.34 493.14 298.501C493.14 303.663 497.229 307.847 502.273 307.847Z" fill="#F2F2F2"/>
<path d="M485.046 353.85C485.824 345.281 487.972 336.902 491.403 329.046C492.36 326.859 493.413 324.721 494.562 322.631C494.62 322.522 494.634 322.394 494.601 322.274C494.568 322.154 494.491 322.052 494.386 321.99C494.281 321.927 494.157 321.909 494.039 321.938C493.921 321.968 493.819 322.043 493.754 322.148C489.575 329.76 486.648 338.024 485.089 346.608C484.655 349.005 484.329 351.419 484.111 353.85C484.055 354.463 484.991 354.459 485.046 353.85Z" fill="#F2F2F2"/>
<path d="M496.828 324.166C500.1 324.166 502.753 321.452 502.753 318.104C502.753 314.755 500.1 312.041 496.828 312.041C493.555 312.041 490.902 314.755 490.902 318.104C490.902 321.452 493.555 324.166 496.828 324.166Z" fill="#F2F2F2"/>
<path d="M483.866 353.278C479.329 346.032 475.985 338.073 473.968 329.719C473.408 327.393 472.953 325.045 472.603 322.674C472.582 322.551 472.516 322.442 472.419 322.368C472.321 322.295 472.199 322.263 472.079 322.279C471.958 322.296 471.849 322.359 471.774 322.457C471.698 322.554 471.663 322.678 471.675 322.801C472.956 331.433 475.615 339.791 479.546 347.541C480.645 349.704 481.839 351.812 483.128 353.866C483.453 354.385 484.189 353.793 483.866 353.278Z" fill="#F2F2F2"/>
<path d="M471.667 323.741C474.94 323.741 477.593 321.026 477.593 317.678C477.593 314.33 474.94 311.615 471.667 311.615C468.395 311.615 465.742 314.33 465.742 317.678C465.742 321.026 468.395 323.741 471.667 323.741Z" fill="#F2F2F2"/>
<path d="M101.61 353.602C100.412 340.394 97.1014 327.478 91.8113 315.368C90.3369 311.998 88.7142 308.702 86.943 305.48C86.8541 305.312 86.8327 305.115 86.8833 304.93C86.9338 304.746 87.0524 304.589 87.2139 304.492C87.3754 304.396 87.5673 304.367 87.7491 304.412C87.9309 304.458 88.0883 304.574 88.1882 304.736C94.6293 316.47 99.1418 329.207 101.545 342.439C102.214 346.134 102.716 349.855 103.052 353.602C103.138 354.547 101.695 354.541 101.61 353.602Z" fill="#F2F2F2"/>
<path d="M83.4508 307.847C88.495 307.847 92.5842 303.663 92.5842 298.501C92.5842 293.34 88.495 289.156 83.4508 289.156C78.4066 289.156 74.3174 293.34 74.3174 298.501C74.3174 303.663 78.4066 307.847 83.4508 307.847Z" fill="#F2F2F2"/>
<path d="M100.676 353.85C99.8987 345.281 97.751 336.902 94.3191 329.046C93.3626 326.859 92.3099 324.721 91.1608 322.631C91.103 322.522 91.0891 322.394 91.1219 322.274C91.1546 322.154 91.2315 322.052 91.3364 321.99C91.4412 321.927 91.5658 321.909 91.6838 321.938C91.8018 321.968 91.9039 322.043 91.9687 322.148C96.1473 329.76 99.0747 338.024 100.634 346.608C101.068 349.005 101.394 351.419 101.612 353.85C101.667 354.463 100.731 354.459 100.676 353.85Z" fill="#F2F2F2"/>
<path d="M88.895 324.166C92.1674 324.166 94.8203 321.452 94.8203 318.104C94.8203 314.755 92.1674 312.041 88.895 312.041C85.6226 312.041 82.9697 314.755 82.9697 318.104C82.9697 321.452 85.6226 324.166 88.895 324.166Z" fill="#F2F2F2"/>
<path d="M101.857 353.278C106.395 346.032 109.739 338.073 111.755 329.719C112.315 327.393 112.771 325.045 113.121 322.674C113.141 322.551 113.207 322.442 113.305 322.368C113.403 322.295 113.525 322.263 113.645 322.279C113.765 322.296 113.874 322.359 113.95 322.457C114.025 322.554 114.06 322.678 114.048 322.801C112.767 331.433 110.108 339.791 106.177 347.541C105.078 349.704 103.884 351.812 102.595 353.866C102.27 354.385 101.535 353.793 101.857 353.278Z" fill="#F2F2F2"/>
<path d="M114.055 323.741C117.328 323.741 119.98 321.026 119.98 317.678C119.98 314.33 117.328 311.615 114.055 311.615C110.783 311.615 108.13 314.33 108.13 317.678C108.13 321.026 110.783 323.741 114.055 323.741Z" fill="#F2F2F2"/>
<path d="M449.783 231.434L449.926 341.31C449.926 343.35 449.136 345.307 447.729 346.751C446.321 348.195 444.411 349.01 442.417 349.015L397.811 349.082C410.368 325.047 417.478 287.215 417.436 258.054C417.425 246.546 416.282 235.068 414.025 223.794L442.253 223.752C444.246 223.751 446.159 224.559 447.571 226C448.982 227.44 449.778 229.394 449.783 231.434Z" fill="#342C2A"/>
<path d="M511.29 355H71.1112C70.9233 355 70.7432 354.923 70.6105 354.787C70.4778 354.65 70.4033 354.466 70.4033 354.274C70.4033 354.081 70.4778 353.897 70.6105 353.761C70.7432 353.625 70.9233 353.548 71.1112 353.547H511.29C511.479 353.547 511.659 353.624 511.792 353.76C511.925 353.896 512 354.081 512 354.274C512 354.466 511.925 354.651 511.792 354.787C511.659 354.924 511.479 355 511.29 355Z" fill="#3F3D56"/>
<path d="M384.417 216.417L304.919 216.098L312.649 189.782C313.266 187.715 314.514 185.904 316.209 184.614C317.905 183.324 319.959 182.624 322.072 182.614H322.109L367.484 182.797C369.603 182.815 371.661 183.528 373.354 184.832C375.047 186.136 376.286 187.962 376.889 190.041L384.417 216.417Z" fill="#3F3D56"/>
<path d="M428.798 207.412C426.584 207.412 424.461 208.311 422.896 209.913C421.331 211.515 420.451 213.687 420.451 215.952H437.145C437.145 213.687 436.266 211.515 434.7 209.913C433.135 208.311 431.012 207.412 428.798 207.412Z" fill="#342C2A"/>
<path d="M454.435 354.43H235.029C232.342 354.427 229.766 353.333 227.866 351.389C225.965 349.445 224.897 346.809 224.894 344.059V225.713C224.897 222.963 225.965 220.327 227.866 218.383C229.766 216.439 232.342 215.345 235.029 215.342H454.435C457.122 215.345 459.698 216.439 461.598 218.383C463.499 220.327 464.567 222.963 464.57 225.713V344.059C464.567 346.809 463.499 349.445 461.598 351.389C459.698 353.333 457.122 354.427 454.435 354.43ZM235.029 216.562C232.658 216.565 230.385 217.53 228.708 219.245C227.032 220.961 226.089 223.287 226.086 225.713V344.059C226.089 346.485 227.032 348.811 228.708 350.527C230.385 352.242 232.658 353.207 235.029 353.21H454.435C456.806 353.207 459.079 352.242 460.756 350.527C462.432 348.811 463.375 346.485 463.378 344.059V225.713C463.375 223.287 462.432 220.961 460.756 219.245C459.079 217.53 456.806 216.565 454.435 216.562H235.029Z" fill="#3F3D56"/>
<path d="M354.272 206.497H335.193C333.849 206.497 332.56 205.95 331.609 204.978C330.659 204.005 330.125 202.686 330.125 201.311C330.125 199.936 330.659 198.617 331.609 197.645C332.56 196.672 333.849 196.126 335.193 196.126H354.272C355.616 196.126 356.905 196.672 357.855 197.645C358.805 198.617 359.339 199.936 359.339 201.311C359.339 202.686 358.805 204.005 357.855 204.978C356.905 205.95 355.616 206.497 354.272 206.497Z" fill="white"/>
<path d="M344.732 331.249C335.77 331.249 327.009 328.53 319.558 323.435C312.106 318.341 306.299 311.1 302.869 302.628C299.44 294.157 298.542 284.835 300.291 275.841C302.039 266.848 306.355 258.587 312.692 252.103C319.029 245.619 327.102 241.203 335.892 239.414C344.682 237.625 353.792 238.544 362.072 242.053C370.352 245.562 377.429 251.504 382.408 259.128C387.387 266.753 390.044 275.716 390.044 284.886C390.031 297.178 385.252 308.962 376.757 317.654C368.263 326.346 356.745 331.235 344.732 331.249ZM344.732 239.744C336.006 239.744 327.476 242.391 320.22 247.351C312.965 252.312 307.31 259.362 303.971 267.611C300.631 275.86 299.758 284.936 301.46 293.693C303.162 302.45 307.364 310.493 313.535 316.807C319.705 323.12 327.566 327.419 336.125 329.161C344.683 330.903 353.554 330.009 361.616 326.592C369.678 323.176 376.568 317.39 381.416 309.966C386.264 302.542 388.852 293.814 388.852 284.886C388.838 272.918 384.186 261.443 375.915 252.98C367.644 244.517 356.429 239.757 344.732 239.744Z" fill="#3F3D56"/>
<path d="M344.731 315.388C338.836 315.388 333.072 313.599 328.17 310.247C323.267 306.896 319.446 302.132 317.19 296.558C314.934 290.985 314.343 284.852 315.494 278.935C316.644 273.019 319.483 267.584 323.652 263.318C327.821 259.052 333.133 256.147 338.916 254.97C344.698 253.793 350.692 254.397 356.139 256.706C361.587 259.015 366.242 262.924 369.518 267.94C372.794 272.956 374.542 278.853 374.542 284.886C374.533 292.973 371.389 300.726 365.801 306.444C360.212 312.162 352.635 315.379 344.731 315.388ZM344.731 255.604C339.071 255.604 333.538 257.322 328.832 260.539C324.126 263.757 320.458 268.33 318.292 273.68C316.126 279.031 315.559 284.918 316.663 290.599C317.767 296.279 320.493 301.496 324.495 305.591C328.498 309.686 333.597 312.475 339.148 313.605C344.7 314.735 350.454 314.155 355.683 311.939C360.912 309.722 365.382 305.969 368.527 301.154C371.671 296.339 373.35 290.677 373.35 284.886C373.341 277.123 370.323 269.68 364.958 264.19C359.593 258.701 352.319 255.613 344.731 255.604Z" fill="#3F3D56"/>
<path d="M344.732 308.067C357.245 308.067 367.388 297.689 367.388 284.886C367.388 272.083 357.245 261.705 344.732 261.705C332.22 261.705 322.076 272.083 322.076 284.886C322.076 297.689 332.22 308.067 344.732 308.067Z" fill="#CCCCCC"/>
<path d="M331.019 284.886C331.02 281.212 332.317 277.661 334.672 274.887C337.027 272.113 340.282 270.302 343.838 269.787C341.724 269.48 339.571 269.64 337.523 270.258C335.476 270.876 333.582 271.936 331.97 273.368C330.357 274.8 329.065 276.569 328.179 278.556C327.293 280.543 326.834 282.702 326.834 284.886C326.834 287.07 327.293 289.229 328.179 291.216C329.065 293.203 330.357 294.973 331.97 296.404C333.582 297.836 335.476 298.896 337.523 299.514C339.571 300.132 341.724 300.293 343.838 299.985C340.282 299.47 337.027 297.66 334.672 294.886C332.317 292.111 331.02 288.561 331.019 284.886Z" fill="white"/>
<path d="M443.703 216.562H413.893V215.952C413.893 211.907 415.463 208.028 418.258 205.168C421.054 202.308 424.845 200.701 428.798 200.701C432.751 200.701 436.542 202.308 439.337 205.168C442.133 208.028 443.703 211.907 443.703 215.952V216.562ZM415.098 215.342H442.498C442.344 211.73 440.834 208.318 438.281 205.818C435.729 203.317 432.331 201.922 428.798 201.922C425.264 201.922 421.867 203.317 419.315 205.818C416.762 208.318 415.252 211.73 415.098 215.342Z" fill="#3F3D56"/>
<path d="M239.799 233.643C238.62 233.643 237.467 233.285 236.487 232.615C235.506 231.945 234.742 230.992 234.291 229.877C233.839 228.763 233.721 227.536 233.951 226.353C234.182 225.169 234.749 224.082 235.583 223.229C236.417 222.376 237.479 221.795 238.636 221.56C239.792 221.324 240.991 221.445 242.081 221.907C243.17 222.368 244.101 223.15 244.756 224.154C245.411 225.157 245.761 226.336 245.761 227.543C245.759 229.16 245.131 230.711 244.013 231.854C242.895 232.998 241.38 233.641 239.799 233.643ZM239.799 222.662C238.856 222.662 237.934 222.949 237.149 223.485C236.365 224.021 235.753 224.783 235.392 225.675C235.031 226.567 234.937 227.548 235.121 228.495C235.305 229.442 235.759 230.311 236.426 230.994C237.093 231.676 237.943 232.141 238.869 232.329C239.794 232.518 240.753 232.421 241.624 232.052C242.496 231.682 243.241 231.057 243.765 230.254C244.289 229.452 244.569 228.508 244.569 227.543C244.567 226.249 244.064 225.008 243.17 224.093C242.276 223.179 241.064 222.664 239.799 222.662Z" fill="#3F3D56"/>
<path d="M239.798 230.593C241.445 230.593 242.779 229.227 242.779 227.543C242.779 225.858 241.445 224.493 239.798 224.493C238.152 224.493 236.817 225.858 236.817 227.543C236.817 229.227 238.152 230.593 239.798 230.593Z" fill="#342C2A"/>
<path d="M255.3 230.593C256.947 230.593 258.281 229.227 258.281 227.543C258.281 225.858 256.947 224.493 255.3 224.493C253.654 224.493 252.319 225.858 252.319 227.543C252.319 229.227 253.654 230.593 255.3 230.593Z" fill="#CCCCCC"/>
<path d="M270.801 230.593C272.448 230.593 273.782 229.227 273.782 227.543C273.782 225.858 272.448 224.493 270.801 224.493C269.155 224.493 267.82 225.858 267.82 227.543C267.82 229.227 269.155 230.593 270.801 230.593Z" fill="#CCCCCC"/>
<path d="M255.3 233.643C254.121 233.643 252.968 233.285 251.988 232.615C251.007 231.945 250.243 230.992 249.792 229.877C249.34 228.763 249.222 227.536 249.452 226.353C249.683 225.169 250.25 224.082 251.084 223.229C251.918 222.376 252.98 221.795 254.137 221.56C255.293 221.324 256.492 221.445 257.582 221.907C258.671 222.368 259.602 223.15 260.257 224.154C260.912 225.157 261.262 226.336 261.262 227.543C261.26 229.16 260.632 230.711 259.514 231.854C258.396 232.998 256.881 233.641 255.3 233.643ZM255.3 222.662C254.357 222.662 253.434 222.949 252.65 223.485C251.866 224.021 251.254 224.783 250.893 225.675C250.532 226.567 250.438 227.548 250.622 228.495C250.806 229.442 251.26 230.311 251.927 230.994C252.594 231.676 253.444 232.141 254.369 232.329C255.295 232.518 256.254 232.421 257.125 232.052C257.997 231.682 258.742 231.057 259.266 230.254C259.79 229.452 260.07 228.508 260.07 227.543C260.068 226.249 259.565 225.008 258.671 224.093C257.777 223.179 256.565 222.664 255.3 222.662Z" fill="#3F3D56"/>
<path d="M270.802 233.643C269.623 233.643 268.47 233.285 267.49 232.615C266.509 231.945 265.745 230.992 265.294 229.877C264.842 228.763 264.724 227.536 264.954 226.353C265.184 225.169 265.752 224.082 266.586 223.229C267.42 222.376 268.482 221.795 269.639 221.56C270.795 221.324 271.994 221.445 273.084 221.907C274.173 222.368 275.104 223.15 275.759 224.154C276.414 225.157 276.764 226.336 276.764 227.543C276.762 229.16 276.134 230.711 275.016 231.854C273.898 232.998 272.383 233.641 270.802 233.643ZM270.802 222.662C269.859 222.662 268.936 222.949 268.152 223.485C267.368 224.021 266.756 224.783 266.395 225.675C266.034 226.567 265.94 227.548 266.124 228.495C266.308 229.442 266.762 230.311 267.429 230.994C268.096 231.676 268.946 232.141 269.871 232.329C270.797 232.518 271.756 232.421 272.627 232.052C273.499 231.682 274.244 231.057 274.768 230.254C275.292 229.452 275.572 228.508 275.572 227.543C275.57 226.249 275.067 225.008 274.173 224.093C273.279 223.179 272.067 222.664 270.802 222.662Z" fill="#3F3D56"/>
<path d="M302.997 268.338H225.489V269.558H302.997V268.338Z" fill="#3F3D56"/>
<path d="M301.072 292.893H225.489V294.113H301.072V292.893Z" fill="#3F3D56"/>
<path d="M463.974 268.338H386.467V269.558H463.974V268.338Z" fill="#3F3D56"/>
<path d="M463.837 292.893H388.255V294.113H463.837V292.893Z" fill="#3F3D56"/>
<path d="M162.662 147.919C157.827 145.646 154.649 139.149 154.83 132.741C155.011 126.332 158.306 120.339 162.852 117.283C165.068 115.831 167.602 114.964 170.227 114.761C172.851 114.558 175.484 115.025 177.888 116.121C182.767 118.246 189.317 118.824 192.249 124.106C194.503 128.164 193.691 137.218 192.095 141.731C190.716 145.631 187.345 147.829 184.056 149.059C180.417 150.408 176.537 150.942 172.678 150.624C168.82 150.306 165.073 149.144 161.692 147.216" fill="#2F2E41"/>
<path d="M133.183 346.931L126.231 344.617L131.646 316.084L141.905 319.499L133.183 346.931Z" fill="#FFB8B8"/>
<path d="M121.913 340.932L135.318 345.394L132.572 354.03L110.727 346.759C111.087 345.624 111.663 344.574 112.42 343.668C113.177 342.761 114.102 342.016 115.141 341.475C116.179 340.934 117.312 340.607 118.474 340.514C119.636 340.421 120.805 340.563 121.913 340.932Z" fill="#2F2E41"/>
<path d="M195.408 347.086L188.098 347.085L184.621 318.238L195.409 318.238L195.408 347.086Z" fill="#FFB8B8"/>
<path d="M182.878 344.948H196.974V354.03H174.002C174.002 352.837 174.232 351.656 174.678 350.554C175.124 349.453 175.777 348.451 176.602 347.608C177.426 346.765 178.404 346.096 179.481 345.64C180.558 345.183 181.712 344.948 182.878 344.948Z" fill="#2F2E41"/>
<path d="M195.04 335.287C194.996 335.287 194.952 335.285 194.908 335.283L186.808 334.888C186.126 334.854 185.482 334.555 185.008 334.053C184.533 333.551 184.263 332.883 184.253 332.184L183.155 250.201C183.152 249.998 183.084 249.801 182.959 249.642C182.835 249.484 182.663 249.372 182.47 249.324C182.277 249.277 182.073 249.296 181.892 249.38C181.711 249.464 181.563 249.607 181.47 249.787L138.567 333.02C138.301 333.542 137.878 333.961 137.36 334.216C136.842 334.472 136.257 334.549 135.693 334.436L127.631 332.866C127.252 332.792 126.892 332.635 126.577 332.405C126.262 332.176 126 331.88 125.807 331.537C125.614 331.194 125.496 330.813 125.461 330.419C125.426 330.025 125.475 329.628 125.603 329.255L156.863 238.634L159.268 211.827C159.321 211.201 159.584 210.614 160.012 210.164C160.439 209.714 161.005 209.429 161.615 209.356C170.723 208.211 183.45 200.575 188.499 197.345C188.809 197.145 189.156 197.013 189.518 196.957C189.881 196.901 190.25 196.923 190.604 197.021C190.962 197.119 191.296 197.292 191.586 197.527C191.877 197.763 192.117 198.056 192.292 198.39C204.455 221.518 209.106 248.007 205.574 274.02L197.694 332.913C197.609 333.571 197.293 334.175 196.804 334.612C196.316 335.049 195.689 335.289 195.04 335.287Z" fill="#2F2E41"/>
<path d="M173.237 154.215C181.325 154.215 187.881 147.507 187.881 139.232C187.881 130.957 181.325 124.249 173.237 124.249C165.15 124.249 158.594 130.957 158.594 139.232C158.594 147.507 165.15 154.215 173.237 154.215Z" fill="#FFB8B8"/>
<path d="M158.647 218.263L154.238 186.026C153.164 181.127 154.035 175.993 156.66 171.752C159.284 167.511 163.447 164.509 168.234 163.406C173.02 162.304 178.039 163.191 182.186 165.873C186.334 168.555 189.271 172.812 190.352 177.708C191.608 183.667 194.159 190.922 193.227 198.742C186.697 217.287 174.843 223.004 158.647 218.263Z" fill="#B3B3B3"/>
<path d="M178.024 168.24H167.292C166.581 168.24 165.899 167.95 165.396 167.435C164.893 166.921 164.61 166.223 164.609 165.495V161.835C164.61 161.107 164.893 160.409 165.396 159.895C165.899 159.38 166.581 159.091 167.292 159.09H178.024C178.735 159.091 179.417 159.38 179.92 159.895C180.423 160.409 180.706 161.107 180.707 161.835V165.495C180.706 166.223 180.423 166.921 179.92 167.435C179.417 167.95 178.735 168.24 178.024 168.24Z" fill="#B3B3B3"/>
<path d="M232.413 229.172C232.704 228.261 232.796 227.296 232.684 226.345C232.571 225.394 232.256 224.48 231.76 223.667C231.265 222.854 230.601 222.162 229.816 221.64C229.031 221.118 228.144 220.778 227.217 220.644L193.812 171.711L183.906 181.731L219.857 226.68C219.741 228.289 220.207 229.885 221.164 231.166C222.122 232.447 223.506 233.325 225.053 233.632C226.601 233.939 228.205 233.655 229.561 232.833C230.918 232.011 231.932 230.708 232.413 229.172Z" fill="#FFB8B8"/>
<path d="M204.261 186.681L192.198 194.92C191.854 195.155 191.466 195.311 191.058 195.378C190.651 195.445 190.234 195.421 189.836 195.308C189.439 195.195 189.069 194.996 188.754 194.724C188.438 194.452 188.183 194.114 188.007 193.732L181.827 180.356C180.666 178.552 180.251 176.351 180.673 174.234C181.095 172.118 182.32 170.259 184.079 169.066C185.838 167.872 187.988 167.44 190.057 167.865C192.127 168.29 193.948 169.537 195.12 171.334L204.796 182.265C205.073 182.578 205.28 182.948 205.405 183.351C205.529 183.754 205.567 184.179 205.517 184.598C205.466 185.017 205.327 185.42 205.111 185.779C204.894 186.139 204.604 186.446 204.261 186.681Z" fill="#B3B3B3"/>
<path d="M114.401 163.423C114.475 163.752 114.522 164.086 114.544 164.423L140.156 179.541L146.381 175.874L153.018 184.764L142.614 192.351C141.773 192.964 140.761 193.281 139.729 193.256C138.697 193.23 137.701 192.862 136.891 192.208L110.481 170.89C109.289 171.342 107.991 171.411 106.76 171.089C105.528 170.767 104.422 170.07 103.587 169.089C102.753 168.108 102.23 166.89 102.089 165.598C101.947 164.306 102.193 163 102.795 161.854C103.396 160.709 104.324 159.778 105.456 159.185C106.587 158.592 107.868 158.366 109.128 158.536C110.388 158.707 111.567 159.265 112.509 160.138C113.451 161.011 114.111 162.156 114.401 163.423Z" fill="#FFB8B8"/>
<path d="M147.6 190.526L141.164 177.226C140.981 176.847 140.88 176.433 140.868 176.011C140.855 175.589 140.932 175.169 141.092 174.78C141.252 174.391 141.493 174.042 141.797 173.756C142.101 173.471 142.462 173.256 142.855 173.126L156.614 168.576C158.512 167.628 160.699 167.489 162.697 168.189C164.694 168.889 166.339 170.371 167.27 172.31C168.202 174.249 168.344 176.487 167.665 178.533C166.986 180.578 165.542 182.265 163.65 183.224L151.811 191.636C151.472 191.877 151.086 192.04 150.68 192.115C150.274 192.189 149.857 192.173 149.457 192.068C149.057 191.962 148.685 191.77 148.364 191.504C148.044 191.238 147.783 190.904 147.6 190.526Z" fill="#B3B3B3"/>
<path d="M183.064 120.362C183.592 120.441 184.13 120.34 184.595 120.074C185.06 119.808 185.427 119.393 185.638 118.892C185.833 118.385 185.913 117.839 185.87 117.296C185.827 116.753 185.663 116.227 185.39 115.758C184.836 114.825 184.062 114.048 183.139 113.499C182.076 112.772 180.848 112.34 179.573 112.244C178.937 112.201 178.299 112.299 177.703 112.53C177.107 112.762 176.567 113.121 176.118 113.585C175.681 114.061 175.393 114.659 175.289 115.303C175.186 115.947 175.273 116.608 175.539 117.201C176.075 118.258 177.198 118.85 178.293 119.253C180.464 120.049 182.778 120.359 185.076 120.164" fill="#2F2E41"/>
<path d="M187.747 146.054C185.188 146.177 185.628 140.62 184.827 138.13C184.026 135.64 182.922 132.67 180.403 132.192C178.338 131.801 176.472 133.345 174.674 134.454C171.468 136.431 167.319 137.16 163.953 135.486C160.587 133.811 158.54 129.338 160.177 125.894C160.676 124.948 161.359 124.116 162.184 123.45C163.01 122.785 163.96 122.3 164.976 122.026C167.013 121.49 169.136 121.386 171.214 121.719C175.849 122.301 180.304 123.916 184.262 126.451C186.994 128.204 189.593 130.591 190.407 133.784C191.22 136.977 191.551 145.658 188.372 146.208L187.747 146.054Z" fill="#2F2E41"/>
<path d="M181.051 112.633C179.117 110.126 179.846 106.175 182.099 103.964C184.352 101.754 187.703 101.065 190.813 101.346C193.894 101.663 196.839 102.804 199.353 104.654C201.867 106.503 203.861 108.997 205.136 111.884C207.101 116.483 207.085 121.744 208.862 126.423C209.81 128.917 211.246 131.186 213.083 133.091C214.919 134.995 217.118 136.495 219.542 137.497C221.967 138.5 224.567 138.984 227.181 138.92C229.795 138.856 232.369 138.245 234.744 137.124C237.837 135.665 240.782 132.807 240.606 129.327C242.562 137.042 239.039 145.867 232.365 149.975C228.455 152.381 223.825 153.198 219.296 153.761C216.344 154.127 213.31 154.399 210.43 153.645C206.4 152.589 203.026 149.545 200.983 145.838C198.94 142.13 198.136 137.809 198.105 133.553C198.081 130.237 198.505 126.92 198.281 123.612C198.057 120.304 197.085 116.883 194.742 114.592C192.398 112.302 188.443 111.548 185.871 113.566C184.838 114.376 184.08 115.56 182.916 116.158C181.753 116.756 179.914 116.291 179.836 114.961L181.051 112.633Z" fill="#2F2E41"/>
<path d="M124.944 163.529H4.16478C3.06061 163.528 2.00202 163.079 1.22125 162.28C0.440481 161.481 0.00128129 160.398 0 159.268V89.6661C0.00128286 88.5364 0.440481 87.4532 1.22125 86.6544C2.00202 85.8555 3.06061 85.4061 4.16478 85.4048H124.944C126.048 85.4061 127.106 85.8554 127.887 86.6543C128.668 87.4532 129.107 88.5363 129.108 89.6661V159.268C129.107 160.398 128.668 161.481 127.887 162.28C127.106 163.079 126.048 163.528 124.944 163.529ZM4.16478 86.3518C3.30597 86.3527 2.48261 86.7022 1.87533 87.3236C1.26806 87.9449 0.926467 88.7874 0.925503 89.6661V159.268C0.926467 160.147 1.26806 160.989 1.87533 161.611C2.48261 162.232 3.30597 162.582 4.16478 162.582H124.944C125.802 162.581 126.626 162.232 127.233 161.611C127.84 160.989 128.182 160.147 128.183 159.268V89.6661C128.182 88.7874 127.84 87.945 127.233 87.3237C126.626 86.7023 125.802 86.3528 124.944 86.3518H4.16478Z" fill="#3F3D56"/>
<path d="M43.9815 134.264C53.5198 134.264 61.2521 126.352 61.2521 116.593C61.2521 106.833 53.5198 98.9219 43.9815 98.9219C34.4432 98.9219 26.7109 106.833 26.7109 116.593C26.7109 126.352 34.4432 134.264 43.9815 134.264Z" fill="#E6E6E6"/>
<path d="M110.531 147.797L90.2584 111.869C90.1317 111.644 89.9494 111.458 89.73 111.328C89.5105 111.198 89.2616 111.13 89.0081 111.13C88.7547 111.13 88.5057 111.198 88.2863 111.328C88.0668 111.458 87.8845 111.644 87.7578 111.869L75.3859 133.795L56.9417 101.108C56.7792 100.82 56.5456 100.581 56.2642 100.414C55.9828 100.248 55.6636 100.161 55.3387 100.161C55.0138 100.161 54.6946 100.248 54.4132 100.414C54.1318 100.581 53.8981 100.82 53.7356 101.108L27.7431 147.172C27.5806 147.46 27.4951 147.786 27.4951 148.119C27.4951 148.451 27.5806 148.778 27.7431 149.066C27.9056 149.354 28.1392 149.593 28.4206 149.759C28.702 149.925 29.0212 150.013 29.3461 150.013H109.281C109.535 150.013 109.784 149.944 110.003 149.815C110.222 149.685 110.405 149.499 110.531 149.274C110.658 149.049 110.725 148.795 110.725 148.535C110.725 148.276 110.658 148.021 110.531 147.797Z" fill="#342C2A"/>
<path d="M16.1961 93.9275H8.79199V101.503H16.1961V93.9275Z" fill="#3F3D56"/>
<path d="M171.957 61.0437H77.5853C76.7225 61.0427 75.8954 60.6916 75.2853 60.0674C74.6752 59.4432 74.3321 58.5968 74.3311 57.7141V3.32967C74.3321 2.4469 74.6752 1.60059 75.2853 0.976375C75.8954 0.352165 76.7225 0.00102683 77.5853 0H171.957C172.82 0.000994606 173.647 0.352121 174.257 0.976338C174.867 1.60055 175.211 2.44689 175.212 3.32967V57.7141C175.211 58.5968 174.867 59.4432 174.257 60.0674C173.647 60.6916 172.82 61.0427 171.957 61.0437ZM77.5853 0.739924C76.9142 0.740695 76.2709 1.01379 75.7964 1.49929C75.3219 1.98479 75.055 2.64306 75.0542 3.32967V57.7141C75.055 58.4007 75.3219 59.0589 75.7964 59.5444C76.2709 60.0299 76.9142 60.303 77.5853 60.3038H171.957C172.628 60.303 173.272 60.0299 173.746 59.5444C174.221 59.0589 174.488 58.4007 174.488 57.7141V3.32967C174.488 2.64307 174.221 1.98483 173.746 1.49933C173.272 1.01383 172.628 0.740724 171.957 0.739924H77.5853Z" fill="#CCCCCC"/>
<path d="M108.697 38.1767C116.15 38.1767 122.191 31.9949 122.191 24.3692C122.191 16.7436 116.15 10.5618 108.697 10.5618C101.244 10.5618 95.2021 16.7436 95.2021 24.3692C95.2021 31.9949 101.244 38.1767 108.697 38.1767Z" fill="#F2F2F2"/>
<path d="M160.697 48.7507L144.856 20.6778C144.757 20.5024 144.615 20.3566 144.443 20.2553C144.272 20.154 144.077 20.1007 143.879 20.1007C143.681 20.1007 143.487 20.154 143.315 20.2553C143.144 20.3566 143.001 20.5024 142.902 20.6778L133.235 37.8098L118.824 12.2694C118.697 12.0445 118.514 11.8577 118.294 11.7278C118.075 11.5979 117.825 11.5295 117.571 11.5295C117.317 11.5295 117.068 11.5979 116.848 11.7278C116.628 11.8577 116.446 12.0445 116.319 12.2694L96.0092 48.2622C95.8823 48.4872 95.8154 48.7424 95.8154 49.0022C95.8154 49.2619 95.8823 49.5171 96.0092 49.7421C96.1361 49.967 96.3187 50.1539 96.5386 50.2837C96.7585 50.4136 97.0079 50.482 97.2618 50.482H159.72C159.918 50.482 160.113 50.4287 160.284 50.3274C160.455 50.2261 160.598 50.0803 160.697 49.9049C160.796 49.7294 160.848 49.5304 160.848 49.3278C160.848 49.1252 160.796 48.9261 160.697 48.7507Z" fill="#E6E6E6"/>
<path d="M86.9864 6.65942H81.2012V12.5788H86.9864V6.65942Z" fill="#CCCCCC"/>
</g>
<defs>
<clipPath id="clip0_383_1947">
<rect width="512" height="355" fill="white"/>
</clipPath>
</defs>
</svg>
